<svg xmlns="http://www.w3.org/2000/svg" xmlns:xlink="http://www.w3.org/1999/xlink" viewBox="0 0 1037.67 349.22"><defs><style>.cls-1{opacity:0.19;}.cls-10,.cls-11,.cls-12,.cls-13,.cls-14,.cls-15,.cls-16,.cls-17,.cls-18,.cls-19,.cls-2,.cls-20,.cls-21,.cls-22,.cls-23,.cls-24,.cls-25,.cls-26,.cls-27,.cls-28,.cls-29,.cls-3,.cls-30,.cls-31,.cls-32,.cls-33,.cls-34,.cls-35,.cls-36,.cls-37,.cls-4,.cls-5,.cls-6,.cls-7,.cls-8,.cls-9{opacity:0.11;}.cls-2{fill:url(#名称未設定グラデーション_54);}.cls-3{fill:url(#名称未設定グラデーション_54-2);}.cls-4{fill:url(#名称未設定グラデーション_54-3);}.cls-5{fill:url(#名称未設定グラデーション_54-4);}.cls-6{fill:url(#名称未設定グラデーション_54-5);}.cls-7{fill:url(#名称未設定グラデーション_54-6);}.cls-8{fill:url(#名称未設定グラデーション_54-7);}.cls-9{fill:url(#名称未設定グラデーション_54-8);}.cls-10{fill:url(#名称未設定グラデーション_54-9);}.cls-11{fill:url(#名称未設定グラデーション_54-10);}.cls-12{fill:url(#名称未設定グラデーション_54-11);}.cls-13{fill:url(#名称未設定グラデーション_54-12);}.cls-14{fill:url(#名称未設定グラデーション_54-13);}.cls-15{fill:url(#名称未設定グラデーション_54-14);}.cls-16{fill:url(#名称未設定グラデーション_54-15);}.cls-17{fill:url(#名称未設定グラデーション_54-16);}.cls-18{fill:url(#名称未設定グラデーション_54-17);}.cls-19{fill:url(#名称未設定グラデーション_54-18);}.cls-20{fill:url(#名称未設定グラデーション_54-19);}.cls-21{fill:url(#名称未設定グラデーション_54-20);}.cls-22{fill:url(#名称未設定グラデーション_54-21);}.cls-23{fill:url(#名称未設定グラデーション_54-22);}.cls-24{fill:url(#名称未設定グラデーション_54-23);}.cls-25{fill:url(#名称未設定グラデーション_54-24);}.cls-26{fill:url(#名称未設定グラデーション_54-25);}.cls-27{fill:url(#名称未設定グラデーション_54-26);}.cls-28{fill:url(#名称未設定グラデーション_54-27);}.cls-29{fill:url(#名称未設定グラデーション_54-28);}.cls-30{fill:url(#名称未設定グラデーション_54-29);}.cls-31{fill:url(#名称未設定グラデーション_54-30);}.cls-32{fill:url(#名称未設定グラデーション_54-31);}.cls-33{fill:url(#名称未設定グラデーション_54-32);}.cls-34{fill:url(#名称未設定グラデーション_54-33);}.cls-35{fill:url(#名称未設定グラデーション_54-34);}.cls-36{fill:url(#名称未設定グラデーション_54-35);}.cls-37{fill:url(#名称未設定グラデーション_54-36);}</style><linearGradient id="名称未設定グラデーション_54" x1="0.61" y1="182.29" x2="1001.08" y2="182.29" gradientUnits="userSpaceOnUse"><stop offset="0" stop-color="#5f9ebc" stop-opacity="0.4"/><stop offset="1" stop-color="#609ebb" stop-opacity="0.8"/></linearGradient><linearGradient id="名称未設定グラデーション_54-2" x1="2.45" y1="177.23" x2="1002.51" y2="177.23" xlink:href="#名称未設定グラデーション_54"/><linearGradient id="名称未設定グラデーション_54-3" x1="0" y1="181.1" x2="1003.49" y2="181.1" xlink:href="#名称未設定グラデーション_54"/><linearGradient id="名称未設定グラデーション_54-4" x1="10.35" y1="185.37" x2="1007.54" y2="185.37" xlink:href="#名称未設定グラデーション_54"/><linearGradient id="名称未設定グラデーション_54-5" x1="6.05" y1="181.4" x2="1007.18" y2="181.4" xlink:href="#名称未設定グラデーション_54"/><linearGradient id="名称未設定グラデーション_54-6" x1="9.98" y1="177.27" x2="1002.41" y2="177.27" xlink:href="#名称未設定グラデーション_54"/><linearGradient id="名称未設定グラデーション_54-7" x1="4.45" y1="181.33" x2="1000.09" y2="181.33" xlink:href="#名称未設定グラデーション_54"/><linearGradient id="名称未設定グラデーション_54-8" x1="9.02" y1="186.38" x2="1003.44" y2="186.38" xlink:href="#名称未設定グラデーション_54"/><linearGradient id="名称未設定グラデーション_54-9" x1="8.01" y1="176.76" x2="1006.61" y2="176.76" xlink:href="#名称未設定グラデーション_54"/><linearGradient id="名称未設定グラデーション_54-10" x1="6.6" y1="184.79" x2="1001.03" y2="184.79" xlink:href="#名称未設定グラデーション_54"/><linearGradient id="名称未設定グラデーション_54-11" x1="10.6" y1="175.61" x2="1005.78" y2="175.61" xlink:href="#名称未設定グラデーション_54"/><linearGradient id="名称未設定グラデーション_54-12" x1="11.37" y1="179.26" x2="1000.98" y2="179.26" xlink:href="#名称未設定グラデーション_54"/><linearGradient id="名称未設定グラデーション_54-13" x1="34.27" y1="176.53" x2="997.58" y2="176.53" xlink:href="#名称未設定グラデーション_54"/><linearGradient id="名称未設定グラデーション_54-14" x1="35.59" y1="171.21" x2="998.98" y2="171.21" xlink:href="#名称未設定グラデーション_54"/><linearGradient id="名称未設定グラデーション_54-15" x1="33.62" y1="175.76" x2="999.98" y2="175.76" xlink:href="#名称未設定グラデーション_54"/><linearGradient id="名称未設定グラデーション_54-16" x1="44.42" y1="179.21" x2="1004.07" y2="179.21" xlink:href="#名称未設定グラデーション_54"/><linearGradient id="名称未設定グラデーション_54-17" x1="39.7" y1="175.86" x2="1003.69" y2="175.86" xlink:href="#名称未設定グラデーション_54"/><linearGradient id="名称未設定グラデーション_54-18" x1="43.39" y1="170.6" x2="999" y2="170.6" xlink:href="#名称未設定グラデーション_54"/><linearGradient id="名称未設定グラデーション_54-19" x1="37.93" y1="175.03" x2="996.61" y2="175.03" xlink:href="#名称未設定グラデーション_54"/><linearGradient id="名称未設定グラデーション_54-20" x1="43.02" y1="180.01" x2="1000.17" y2="180.01" xlink:href="#名称未設定グラデーション_54"/><linearGradient id="名称未設定グラデーション_54-21" x1="41.05" y1="170.62" x2="1003.08" y2="170.62" xlink:href="#名称未設定グラデーション_54"/><linearGradient id="名称未設定グラデーション_54-22" x1="40.4" y1="178.39" x2="997.62" y2="178.39" xlink:href="#名称未設定グラデーション_54"/><linearGradient id="名称未設定グラデーション_54-23" x1="43.63" y1="169.19" x2="1002.17" y2="169.19" xlink:href="#名称未設定グラデーション_54"/><linearGradient id="名称未設定グラデーション_54-24" x1="44.4" y1="172.49" x2="997.48" y2="172.49" xlink:href="#名称未設定グラデーション_54"/><linearGradient id="名称未設定グラデーション_54-25" x1="4.78" y1="180.85" x2="1031.26" y2="180.85" xlink:href="#名称未設定グラデーション_54"/><linearGradient id="名称未設定グラデーション_54-26" x1="7.08" y1="176.01" x2="1032.7" y2="176.01" xlink:href="#名称未設定グラデーション_54"/><linearGradient id="名称未設定グラデーション_54-27" x1="4.28" y1="179.55" x2="1033.68" y2="179.55" xlink:href="#名称未設定グラデーション_54"/><linearGradient id="名称未設定グラデーション_54-28" x1="14.23" y1="184.08" x2="1037.67" y2="184.08" xlink:href="#名称未設定グラデーション_54"/><linearGradient id="名称未設定グラデーション_54-29" x1="10.32" y1="179.96" x2="1037.34" y2="179.96" xlink:href="#名称未設定グラデーション_54"/><linearGradient id="名称未設定グラデーション_54-30" x1="14.28" y1="176.53" x2="1032.6" y2="176.53" xlink:href="#名称未設定グラデーション_54"/><linearGradient id="名称未設定グラデーション_54-31" x1="8.71" y1="180.34" x2="1030.23" y2="180.34" xlink:href="#名称未設定グラデーション_54"/><linearGradient id="名称未設定グラデーション_54-32" x1="12.35" y1="185.39" x2="1033.53" y2="185.39" xlink:href="#名称未設定グラデーション_54"/><linearGradient id="名称未設定グラデーション_54-33" x1="12.77" y1="175.66" x2="1036.81" y2="175.66" xlink:href="#名称未設定グラデーション_54"/><linearGradient id="名称未設定グラデーション_54-34" x1="10.51" y1="183.78" x2="1031.12" y2="183.78" xlink:href="#名称未設定グラデーション_54"/><linearGradient id="名称未設定グラデーション_54-35" x1="15.2" y1="174.76" x2="1036.04" y2="174.76" xlink:href="#名称未設定グラデーション_54"/><linearGradient id="名称未設定グラデーション_54-36" x1="15.75" y1="178.64" x2="1031.14" y2="178.64" xlink:href="#名称未設定グラデーション_54"/></defs><title>wave_kv</title><g id="レイヤー_2" data-name="レイヤー 2"><g id="レイヤー_1-2" data-name="レイヤー 1"><g class="cls-1"><path class="cls-2" d="M11.83,315.79c14.66-14.25,29.79-28,46.41-40A352.94,352.94,0,0,1,115.86,242a343.17,343.17,0,0,1,73-24.39,256.84,256.84,0,0,1,46.73-5.55c26.73-.67,53.2,3,79.68,6.18,18.72,2.24,37.47,4.23,56.28,5.54,21.61,1.51,43.22,2.21,64.87,2.63,35.26.67,70.63-.37,105.81-2.8,54.15-3.74,108.27-11.14,161.09-23.84a815.44,815.44,0,0,0,85.25-25.24,700.43,700.43,0,0,0,65-27.25,627.18,627.18,0,0,0,71.1-39.69c12.88-8.37,25.57-17,37.81-26.34,13.13-10,25.77-20.48,38.26-31.25,1.59-1.37-2.56-1.74-2.73-1.76-1.82-.19-3.63-.3-5.45-.32a5.06,5.06,0,0,0-2.86.37c-12.49,10.51-25,20.79-38.19,30.45-12.22,9-24.81,17.59-37.69,25.59A667.06,667.06,0,0,1,848.64,140Q818,154.65,786.09,166.32a747.92,747.92,0,0,1-92.56,26.92,1025.2,1025.2,0,0,1-154.1,22q-33.33,2.3-66.77,2.74-11.3.16-22.59.18c-7.39,0-14.8.17-22.18-.32-9.81-.64-19.67-.65-29.49-1q-17.5-.72-35-2c-17.47-1.26-34.91-3-52.34-4.79-28.33-2.95-56.91-6.25-85.43-4.1-39.75,3-78.65,14.38-114.8,30.95a338.47,338.47,0,0,0-63.64,38.24C38.52,281.72,30,288.58,22,295.89c-7.06,6.39-14,12.92-21,19.38-1.57,1.45,2.85,1.46,2.84,1.46,1.78,0,3.55-.1,5.32-.26A4.87,4.87,0,0,0,11.83,315.79Z"/><path class="cls-3" d="M13.23,311.62c14.63-14.26,29.76-28,46.38-39.95a351.88,351.88,0,0,1,57.64-33.81,342.78,342.78,0,0,1,73-24.33A256.17,256.17,0,0,1,237,208.07c26.73-.62,53.2,3.12,79.68,6.32,18.72,2.26,37.48,4.25,56.29,5.56,21.6,1.5,43.2,2.16,64.85,2.62,15,.31,30,.12,45-.17q30.46-.59,60.86-2.68C597.84,216,652,208.53,704.77,195.81A815.65,815.65,0,0,0,790,170.53a699.56,699.56,0,0,0,65-27.31,627.07,627.07,0,0,0,71.07-39.73c12.88-8.37,25.56-17.06,37.79-26.35,13.13-10,25.76-20.5,38.25-31.27,1.43-1.24-1.65-1.95-2.21-2.11-1.61-.43-3.25-.78-4.9-1a4.29,4.29,0,0,0-2.65,0C980,53.25,967.58,63.58,954.54,73.3c-12.11,9-24.6,17.71-37.37,25.79a672.86,672.86,0,0,1-64.69,36.12Q822,150,790.26,162A742.27,742.27,0,0,1,698,189.42a1013.89,1013.89,0,0,1-153.87,22.79q-33.32,2.46-66.75,3-11.3.2-22.58.25c-7.4,0-14.82.21-22.21-.17-9.8-.51-19.64-.53-29.46-.9q-17.5-.66-35-1.91c-17.48-1.25-34.93-3-52.35-4.95-28.45-3.19-57.12-7.16-85.81-5.63C189.72,204,150.41,215,113.71,231.39a335.79,335.79,0,0,0-64.44,38C40.5,276,31.92,282.8,23.76,290.13c-7.06,6.34-14,12.83-21,19.28-1.45,1.34,2.11,1.81,2.52,1.88,1.71.27,3.44.46,5.17.57A4.77,4.77,0,0,0,13.23,311.62Z"/><path class="cls-4" d="M14.28,315C28.83,300.66,44,287,60.63,275a352.94,352.94,0,0,1,57.62-33.83,343.57,343.57,0,0,1,73-24.4,257.62,257.62,0,0,1,46.72-5.56c26.73-.68,53.21,3,79.68,6.16,18.72,2.23,37.48,4.22,56.29,5.53,21.61,1.51,43.22,2.23,64.87,2.63,35.27.64,70.63-.36,105.81-2.78,54.16-3.74,108.28-11.14,161.1-23.84A815.62,815.62,0,0,0,791,173.68a701.5,701.5,0,0,0,65-27.24,626.18,626.18,0,0,0,71.09-39.69c12.88-8.37,25.57-17,37.81-26.34,13.13-10,25.77-20.49,38.26-31.25,1.74-1.5-3.19-1.92-3.38-1.95q-3.39-.45-6.8-.68a7.77,7.77,0,0,0-3.59.19c-12.44,10.41-24.93,20.61-38,30.18-12.17,8.89-24.7,17.43-37.52,25.36A666.59,666.59,0,0,1,849,137.65q-30.51,14.5-62.23,26.1a747,747,0,0,1-92.16,26.76A1024.44,1024.44,0,0,1,541,212.41q-33.27,2.29-66.64,2.77-11.28.16-22.56.2c-7.35,0-14.72.17-22.07-.34-9.76-.68-19.59-.66-29.37-1.06q-17.5-.71-35-2c-17.52-1.25-35-3-52.47-4.77-28.68-3-57.61-6.23-86.47-3.92-40.16,3.22-79.47,14.93-115.92,31.85A342.41,342.41,0,0,0,46.67,274C38,280.7,29.49,287.64,21.38,295c-7,6.39-14,12.85-21,19.26-1.77,1.61,3.68,1.52,3.58,1.52q3.42,0,6.82-.16A7.57,7.57,0,0,0,14.28,315Z"/><path class="cls-5" d="M18.42,318.1a235.11,235.11,0,0,1,21.71-19.65,218.84,218.84,0,0,1,24-19.83Q76,270.1,88.45,262.52a330.43,330.43,0,0,1,64.22-30.27c26.43-9,53.87-15.57,81.88-16.88a301,301,0,0,1,35,.47c13.28.91,26.5,2.62,39.7,4.25,15.83,2,31.68,3.89,47.57,5.34,35.87,3.27,71.85,4.49,107.87,4.36,90.15-.33,180.55-9.43,267.79-32.82C780.32,184.16,827,167,871.12,144.57q30.81-15.69,59.93-34.31C944,102,956.69,93.12,968.9,83.83c13.15-10,25.79-20.56,38.3-31.36,1.42-1.23-2.12-1.5-2.23-1.51a35.91,35.91,0,0,0-4.15.18,3.16,3.16,0,0,0-2.14.64c-16.52,13.9-33.28,27.41-51.06,39.69-12.24,8.45-24.7,16.56-37.47,24.18A671.37,671.37,0,0,1,835.4,154c-61.41,26.91-126.74,44.61-192.9,55.1a1146.28,1146.28,0,0,1-161.39,13.61c-15.92.26-31.9.63-47.8-.21q-13.21-.24-26.42-.79-12-.48-23.91-1.2-15.86-1-31.68-2.4c-18.63-1.67-37.2-3.87-55.81-5.75-15.64-1.58-31.33-2.84-47.06-2.69a271.24,271.24,0,0,0-53.07,5.85,325.3,325.3,0,0,0-37,9.84c-28.8,9.7-56.73,22.37-82.1,39.21-9.8,6.51-19.39,13.29-28.57,20.66-13,10.43-25.06,21.85-37.2,33.26a.75.75,0,0,0,.19,1,2.74,2.74,0,0,0,2.07.18C14.42,319.52,17.14,319.36,18.42,318.1Z"/><path class="cls-6" d="M18,315.11c14.58-14.31,29.75-28,46.38-39.95a352,352,0,0,1,57.59-33.71,341.6,341.6,0,0,1,72.9-24.24,255.91,255.91,0,0,1,46.65-5.42c26.69-.6,53.11,3.14,79.54,6.33,18.72,2.25,37.47,4.24,56.28,5.55,21.61,1.51,43.23,2.22,64.89,2.61,35.27.65,70.66-.39,105.85-2.83,54.19-3.76,108.33-11.19,161.17-23.92a818.34,818.34,0,0,0,85.3-25.3,699,699,0,0,0,65-27.32,627.6,627.6,0,0,0,71.14-39.79c12.89-8.39,25.59-17.09,37.83-26.39,13.14-10,25.78-20.53,38.28-31.32,1.6-1.38-2.53-1.84-2.78-1.88-1.88-.26-3.77-.45-5.66-.55a5.52,5.52,0,0,0-3,.25c-12.43,10.46-24.92,20.7-38,30.32-12.16,8.93-24.69,17.51-37.49,25.5a673.39,673.39,0,0,1-64.77,35.63q-30.5,14.64-62.2,26.38a747.3,747.3,0,0,1-92.12,27.09,1020.54,1020.54,0,0,1-153.52,22.38q-33.27,2.4-66.67,2.94-11.28.19-22.57.25c-7.37,0-14.75.22-22.1-.24-9.75-.61-19.57-.58-29.34-.95q-17.49-.67-35-1.91c-17.52-1.25-35-3-52.47-4.88-28.66-3.13-57.57-6.85-86.46-4.92-40.21,2.7-79.53,14.16-116.06,30.92A338.77,338.77,0,0,0,52.7,274.3c-8.69,6.64-17.18,13.54-25.29,20.89-7,6.38-14,12.85-21,19.23-1.62,1.48,3,1.51,3,1.51,1.89,0,3.77-.05,5.66-.18A5.56,5.56,0,0,0,18,315.11Z"/><path class="cls-7" d="M12.73,311.15c14.65-14.35,29.91-27.93,46.58-39.93a332.12,332.12,0,0,1,63.48-36.11,338.66,338.66,0,0,1,38.55-14,311.31,311.31,0,0,1,32.57-7.87,282.48,282.48,0,0,1,42.25-4.31c29.31-.69,58.45,4.42,87.46,7.81a1066.81,1066.81,0,0,0,119.73,7.15c39.32.16,78.67-.91,117.85-4.42,55.92-5,111.46-14.05,165.7-28.67a762.53,762.53,0,0,0,85.8-28.51,665,665,0,0,0,64.47-30.15,628,628,0,0,0,73.58-45.65c8.69-6.29,17.26-12.74,25.64-19.43,10-8,15.74-13.06,25.38-21.43.53-.45.93-1.29.35-1.86a1.86,1.86,0,0,0-2.29-.24c-20.19,17.52-40.91,34.3-63,49.29-12.08,8.19-24.36,16.1-37,23.45q-28,16.32-57.35,30c-49.24,23-101.37,39.35-154.35,51.22-85.74,19.22-174.08,25-261.76,23.49-21.81-.38-43.62-1.35-65.36-3.19-16.62-1.4-33.19-3.24-49.74-5.29-26.34-3.28-52.72-7.05-79.34-6.13-40.32,1.39-80.07,12.33-116.65,29A344.13,344.13,0,0,0,57.34,269c-16.75,12.05-32,25.73-46.88,40a1.36,1.36,0,0,0-.25,1.78C10.53,311.2,12.34,311.54,12.73,311.15Z"/><path class="cls-8" d="M11.3,314.74a356.13,356.13,0,0,1,41.55-36.53,347.23,347.23,0,0,1,92.53-49.28q10-3.57,20.33-6.29,10.57-3.12,21.4-5.35c6.78-1.32,13.61-2.46,20.47-3.35a261.44,261.44,0,0,1,40-2.15c27.84.67,55.46,5.28,83.11,8.28a1078.87,1078.87,0,0,0,114.51,6.31c91.44.12,183.37-7.53,272.09-30.66,26.34-6.87,52.29-14.92,77.83-24.34a655,655,0,0,0,62.92-27.32,680.1,680.1,0,0,0,65.55-37c12.92-8.27,25.64-17.13,37.84-26.42,13.15-10,25.79-20.54,38.29-31.34,1.17-1-1.13-1.64-1.56-1.72-1.26-.22-3.84-.74-4.94.2-12.48,10.65-25.09,21.05-38.21,30.9-12.19,9.17-24.87,17.82-37.74,26a640.55,640.55,0,0,1-70.95,39.11,681.88,681.88,0,0,1-72.81,29.63,831.94,831.94,0,0,1-84.91,23.67c-52.42,11.68-105.74,18.46-159.32,21.79-21.38,1.32-42.81,2-64.23,2.22q-12.58.12-25.18.08c-9,0-18-.41-27-.69-22.88-.72-45.75-2-68.55-4.09-15.83-1.46-31.62-3.24-47.42-5-13.21-1.47-26.42-2.85-39.7-3.56a281.87,281.87,0,0,0-42.8,1,305.2,305.2,0,0,0-60.73,12.82,326.81,326.81,0,0,0-62.54,26.49,372.83,372.83,0,0,0-40.46,25.75q-10.95,8.16-21.32,17c-8.52,7.31-16.64,15-24.67,22.85-1.11,1.08,1.28,1.55,1.68,1.58C7.68,315.46,10.3,315.76,11.3,314.74Z"/><path class="cls-9" d="M14.47,319.63c14.35-14.39,29.5-28,46-39.86a351.67,351.67,0,0,1,57.37-33.67,342.62,342.62,0,0,1,72.66-24.26,255.29,255.29,0,0,1,46.43-5.5c26.86-.67,53.49,3,80.09,6.25,18.7,2.26,37.45,4.25,56.24,5.56,21.62,1.51,43.25,2.25,64.92,2.6,35.29.58,70.67-.39,105.88-2.83,54.22-3.77,108.4-11.22,161.27-24a815.73,815.73,0,0,0,85.38-25.32,700.41,700.41,0,0,0,65.12-27.34,626.64,626.64,0,0,0,71.22-39.84C940,103.07,952.71,94.36,965,85c13.17-10,25.83-20.56,38.35-31.36a.87.87,0,0,0-.1-1,2,2,0,0,0-1.68-.4c-1.47,0-3.56,0-4.73,1-12.59,10.65-25.25,21.08-38.52,30.87-12.32,9.1-25,17.83-38,26a670.58,670.58,0,0,1-65.72,36.22q-30.9,14.82-63.07,26.59a772.28,772.28,0,0,1-93.11,27.23c-52.87,12.11-106.79,19.25-160.9,22.68q-30.39,1.94-60.83,2.39c-8.94.15-17.89.18-26.82.18-3.81,0-7.61,0-11.42-.06q-4.9,0-9.79-.39c-12.93-.54-25.86-.7-38.78-1.39q-14-.75-28-1.81c-17.07-1.31-34.1-3.06-51.13-4.88-26.28-2.81-52.73-5.94-79.2-4.31-39.15,2.42-77.45,13.26-113.16,29.23a332.68,332.68,0,0,0-63.07,37.2c-8.63,6.45-17.07,13.17-25.11,20.36-7.07,6.33-13.9,12.9-20.67,19.55-.63.62-.61,1.48.35,1.76a9.07,9.07,0,0,0,2.38-.23A8.68,8.68,0,0,0,14.47,319.63Z"/><path class="cls-10" d="M17.32,311.13c14.61-14.28,29.75-28,46.38-39.92a351.8,351.8,0,0,1,57.65-33.7,340.69,340.69,0,0,1,73-24.18A255,255,0,0,1,241.1,208c26.72-.51,53.17,3.35,79.62,6.59,18.72,2.29,37.48,4.29,56.29,5.59,21.6,1.51,43.2,2.17,64.85,2.58,15,.29,30,.09,45-.21q30.47-.6,60.87-2.72c54.17-3.8,108.3-11.28,161.11-24.05a816.29,816.29,0,0,0,85.26-25.37,699,699,0,0,0,65-27.39,624.56,624.56,0,0,0,71.07-39.83c12.88-8.39,25.57-17.1,37.8-26.41,13.13-10,25.75-20.54,38.24-31.33,1.29-1.11-1.08-1.87-1.74-2.11a38.49,38.49,0,0,0-4.13-1.07,3.31,3.31,0,0,0-2.28,0c-12.33,10.59-24.72,21-37.73,30.74C948.27,82.1,935.82,90.83,923.08,99a676.18,676.18,0,0,1-64.54,36.41c-20.28,10-41,19.07-62.12,27.06a740,740,0,0,1-92.18,27.87,1011,1011,0,0,1-153.81,23.37q-33.31,2.57-66.76,3.17-11.3.22-22.59.29c-7.41,0-14.83.22-22.23-.06-9.81-.37-19.63-.43-29.44-.77q-17.52-.62-35-1.86c-17.49-1.24-34.94-3-52.35-5.07-28.47-3.36-57.12-7.84-85.88-6.75-40.38,1.53-79.79,12.2-116.69,28.41A334,334,0,0,0,84.86,248.9a338.11,338.11,0,0,0-30,19.87c-8.79,6.55-17.39,13.38-25.56,20.69-7.06,6.31-14,12.78-20.93,19.21-1.32,1.23,1.55,1.81,2.08,1.94a45.33,45.33,0,0,0,4.48.7A3.68,3.68,0,0,0,17.32,311.13Z"/><path class="cls-11" d="M12.51,317.77c29.81-30.21,64.37-55.23,102.94-73.08a342.62,342.62,0,0,1,72.66-24.26,256,256,0,0,1,46.41-5.52c26.6-.68,53,3,79.31,6.13,19,2.26,38,4.31,57,5.64,21.61,1.51,43.23,2.22,64.9,2.61,35.29.65,70.69-.38,105.89-2.82,54.22-3.76,108.4-11.19,161.26-23.92a817.32,817.32,0,0,0,85.38-25.3,703.5,703.5,0,0,0,65.14-27.34,627.56,627.56,0,0,0,71.23-39.83c12.91-8.39,25.63-17.1,37.89-26.41,13.16-10,25.82-20.56,38.34-31.36a.9.9,0,0,0,0-1.05,1.93,1.93,0,0,0-1.6-.5c-1.37-.11-3.51-.25-4.63.7-12.56,10.66-25.18,21.11-38.43,30.92-12.29,9.11-25,17.86-37.94,26a670.14,670.14,0,0,1-65.65,36.32,660.89,660.89,0,0,1-63.05,26.7,812,812,0,0,1-85.47,25.5,979.88,979.88,0,0,1-162.53,24.26q-28.49,1.9-57,2.61c-9.49.23-19,.32-28.45.36-7.77,0-15.67.24-23.44-.08-20.75-.85-41.5-1.36-62.24-2.75-17.88-1.2-35.72-2.89-53.54-4.79-29.07-3.09-58.12-6.87-87.42-5.42a268.4,268.4,0,0,0-46.51,6.55A364.72,364.72,0,0,0,116.16,240a345.7,345.7,0,0,0-33.84,17.61A319.68,319.68,0,0,0,52.9,277.14c-8.65,6.45-17.12,13.17-25.18,20.36-7.07,6.32-13.9,12.87-20.65,19.53-.89.87-.45,1.62.73,1.8C9.14,319,11.53,318.77,12.51,317.77Z"/><path class="cls-12" d="M16.4,309.57c14.6-14.34,29.78-27.9,46.39-39.88a331.29,331.29,0,0,1,63.71-36.25c27.9-11.88,57.18-20.63,87.3-24.24a266.82,266.82,0,0,1,40.26-1.73c14.16.45,28.27,2.09,42.32,3.82,16.46,2,32.91,4.25,49.41,5.93,33.86,3.44,67.81,5.06,101.83,5.19,31.12.12,62.24-.48,93.3-2.58,53.73-3.64,107.19-10.85,159.69-23a831.19,831.19,0,0,0,85-24.45A661.57,661.57,0,0,0,858.46,142a641.23,641.23,0,0,0,71-40q16-10.49,31.42-21.82c15.41-11.38,30.06-23.55,44.53-36.1,1.77-1.54-3.51-3.41-4.55-2.5-12.33,10.73-24.71,21.32-37.76,31.17q-15.29,11.52-31.17,22.18a667.94,667.94,0,0,1-65.37,38.36c-46.11,23.74-95,41.61-145.17,54.7a944.63,944.63,0,0,1-157,26.63q-41.77,3.62-83.7,4.34-10.95.18-21.91.2-13.9.08-27.8-.32-16.17,0-32.32-.82-26.43-1.31-52.77-4c-16.63-1.7-33.18-4-49.76-6-26.63-3.32-53.32-5.64-80.12-2.73C181.49,209,147.75,219,116.21,233.42A354.32,354.32,0,0,0,57.57,267.5a322,322,0,0,0-25.63,20.37c-7.16,6.31-14.06,12.9-21,19.41C9.18,308.89,15.36,310.59,16.4,309.57Z"/><path class="cls-13" d="M13.11,313.12a43.89,43.89,0,0,1,8.7-10q5.36-5.14,11-10c8.05-7,16.51-13.79,25.23-20a349.71,349.71,0,0,1,57.56-33.38,339.47,339.47,0,0,1,72.81-23.81,251.75,251.75,0,0,1,46.46-5c26.56-.37,52.84,3.56,79.13,6.81a1036.16,1036.16,0,0,0,121.19,8.12c35.34.2,70.66-.43,105.92-2.92,54.28-3.83,108.51-11.38,161.41-24.23a814.53,814.53,0,0,0,85.43-25.52A701.75,701.75,0,0,0,853,145.64a628.57,628.57,0,0,0,71.23-40.08c12.91-8.44,25.62-17.19,37.87-26.56,13.15-10,25.8-20.65,38.31-31.49a1.53,1.53,0,0,0,.4-1.75c-.25-.39-1.62-.8-2-.46-12.47,10.83-25,21.43-38.17,31.41C948.44,86,935.83,94.9,922.93,103.2a678.91,678.91,0,0,1-65.4,37.18C808,165,755.54,183.31,701.74,196a1016.82,1016.82,0,0,1-155,23.71c-37.24,2.89-74.58,3.54-111.91,3.3a1037.67,1037.67,0,0,1-117-7.62c-27.78-3.32-55.74-7.87-83.8-7.12a287.15,287.15,0,0,0-42.6,4.43c-24.57,4.37-48.59,12.29-71.51,22.06a323.85,323.85,0,0,0-34.13,17.14,328.63,328.63,0,0,0-29.66,19.14C47.4,277.39,38.85,284,30.78,291.12l-7.46,6.73a42,42,0,0,0-11.64,13.38c-.27.4-.48,1.38-.12,1.79S12.82,313.5,13.11,313.12Z"/></g><g class="cls-1"><path class="cls-14" d="M45.37,344.27a430.15,430.15,0,0,1,33.09-35.74A311.42,311.42,0,0,1,128.67,270a321.59,321.59,0,0,1,59.66-29,276.42,276.42,0,0,1,31.19-9.56,258.83,258.83,0,0,1,34.7-5.38c22.29-2.13,44.71-2.74,67.1-2.72,25.42,0,50.83.65,76.25,1.23,27.4.63,54.8,1.19,82.21,1.13,25.93-.05,52-.61,77.81-2.57a476.35,476.35,0,0,0,74.27-11.32c37-8.8,72.89-21.77,107.91-36.43,23.21-9.71,46.1-20.14,68.8-31,19.5-9.32,38.6-19.29,57.24-30.24a585.23,585.23,0,0,0,64.52-44.12c10.44-8.18,20.69-16.64,30.51-25.57l12.21-11.33q12.48-11.92,24.23-24.59c1.43-1.5-2.65-1.51-2.86-1.52-1.81,0-3.61,0-5.41.14a5,5,0,0,0-2.8.63c-11.81,12.05-23.69,24-36.42,35q-12,10.41-24.39,20.28a576.17,576.17,0,0,1-64.77,44.2q-26.85,15.89-55,29.31c-25.08,12-50.42,23.48-76.22,33.84-33.58,13.48-67.79,25.68-103.08,33.88a487.94,487.94,0,0,1-77.94,11.21c-2.18.19-4.35.29-6.53.28q-10.1.17-20.16.85-21.15.78-42.31.93c-27.58.22-55.15-.21-82.72-.66-28.26-.47-56.55-1.07-84.81-.47-22.61.48-45.39,1.32-67.83,4.42a299.53,299.53,0,0,0-29.54,5.42,292,292,0,0,0-30.3,9.34,333.24,333.24,0,0,0-61.24,29.94,320.39,320.39,0,0,0-51.43,39.74c-13.16,12.36-25,25.95-36.92,39.44-1.41,1.6,2.93,1.19,2.94,1.19q2.64-.27,5.23-.78A4.78,4.78,0,0,0,45.37,344.27Z"/><path class="cls-15" d="M46.75,340.1a421.64,421.64,0,0,1,33.06-35.73A311.3,311.3,0,0,1,130,265.83a321.14,321.14,0,0,1,59.7-28.92A274.77,274.77,0,0,1,221,227.37,257.58,257.58,0,0,1,255.68,222c22.3-2.09,44.72-2.67,67.12-2.63,25.42,0,50.83.7,76.24,1.3,27.4.64,54.8,1.2,82.21,1.15,25.91,0,51.94-.56,77.79-2.58a479.1,479.1,0,0,0,74.29-11.38c37-8.84,72.9-21.84,107.91-36.52,23.21-9.72,46.09-20.15,68.78-31,19.5-9.33,38.6-19.3,57.23-30.26a587.06,587.06,0,0,0,64.5-44.15c10.44-8.19,20.69-16.66,30.49-25.59L974.45,29q12.48-11.94,24.22-24.6c1.31-1.38-1.85-1.8-2.44-1.92-1.68-.29-3.38-.5-5.08-.63a4.51,4.51,0,0,0-2.7.22c-11.67,12.08-23.42,24-36,35.15Q940.6,47.71,928.28,57.62a574,574,0,0,1-64.23,44.51q-26.7,16-54.78,29.56c-25,12.05-50.22,23.65-75.9,34.16-33.43,13.67-67.48,26.13-102.63,34.68A485,485,0,0,1,553,212.44q-3.26.31-6.52.35-10.07.28-20.12.93-21.15.81-42.31,1c-27.58.23-55.16-.25-82.74-.81-28.31-.58-56.64-1.36-85-1.06-22.76.24-45.69.78-68.31,3.52-10.07,1.23-20.06,2.76-30,5a279.32,279.32,0,0,0-30.77,9,333,333,0,0,0-62.11,29.58A319.44,319.44,0,0,0,73,299.59C59.75,311.9,47.84,325.43,35.87,339c-1.33,1.5,2.37,1.59,2.76,1.62,1.78.09,3.56.11,5.34,0A4.89,4.89,0,0,0,46.75,340.1Z"/><path class="cls-16" d="M47.81,343.5a405.09,405.09,0,0,1,33-35.77,311.78,311.78,0,0,1,50.2-38.55,322.57,322.57,0,0,1,59.66-29,276.59,276.59,0,0,1,31.2-9.56,257.14,257.14,0,0,1,34.69-5.4c22.29-2.13,44.71-2.75,67.1-2.74,25.42,0,50.84.65,76.25,1.23,27.41.63,54.81,1.19,82.22,1.13,25.93-.05,51.95-.62,77.82-2.58A474.13,474.13,0,0,0,634.26,211c37-8.8,72.9-21.77,107.91-36.42,23.22-9.71,46.11-20.14,68.81-31,19.49-9.33,38.59-19.28,57.23-30.23a586.7,586.7,0,0,0,64.52-44.13c10.44-8.18,20.69-16.65,30.5-25.57l12.22-11.33Q987.93,20.4,999.67,7.73c1.58-1.66-3.34-1.61-3.54-1.62-2.28-.1-4.56-.11-6.84-.05a7.77,7.77,0,0,0-3.55.53C974,18.53,962.12,30.32,949.44,41.31q-11.93,10.34-24.3,20.1a574,574,0,0,1-64.48,43.82Q833.89,121,805.8,134.39c-25,11.89-50.24,23.32-75.95,33.6-33.4,13.37-67.42,25.49-102.51,33.65a480.07,480.07,0,0,1-77.5,11.15c-2.16.19-4.31.28-6.48.27q-10.05.12-20.09.83-21.13.78-42.28.93c-27.61.22-55.21-.21-82.81-.66-28.39-.46-56.81-1.06-85.2-.41-22.83.53-45.84,1.43-68.47,4.69a292.36,292.36,0,0,0-29.9,5.71A304,304,0,0,0,184,233.81a334.82,334.82,0,0,0-61.58,30.57,324.19,324.19,0,0,0-51.55,40.34c-13.1,12.45-24.92,26.09-37,39.53-1.61,1.79,3.83,1.12,3.71,1.13q3.39-.33,6.75-.88A7.71,7.71,0,0,0,47.81,343.5Z"/><path class="cls-17" d="M52,346.41A374.54,374.54,0,0,1,92.47,304a309.34,309.34,0,0,1,47.33-34.44,323.9,323.9,0,0,1,60.89-28,233.46,233.46,0,0,1,29.92-8.18q8.46-1.82,17-2.86L286,227.26c23.63-1.12,47.35-.9,71-.48,26.32.47,52.63,1.29,79,1.75,27.88.49,55.79.79,83.67-.05,18.09-.55,36.2-1.26,54.22-3A462.92,462.92,0,0,0,651,211.63c34.67-9.39,68.35-22,101.39-36,23.71-10.07,47.08-20.89,70.23-32.17,18.84-9.17,37.27-19.08,55.18-30a601.25,601.25,0,0,0,58.95-40.85Q952.47,60.28,967.32,47c12.7-11.48,24.66-23.66,36.47-36,1.28-1.34-2.2-1.28-2.32-1.28a34,34,0,0,0-4,.6,3,3,0,0,0-2,.85c-11.88,12.12-23.84,24.09-36.65,35.24q-14.91,13-30.59,25a588.12,588.12,0,0,1-64.54,43.09C845,125.17,825.9,135,806.45,144.2c-24.55,11.64-49.42,22.64-74.67,32.7-34.33,13.67-69.35,25.67-105.48,33.61a442.14,442.14,0,0,1-79.23,10l-17,.8q-12.71.53-25.42.72c-14,.27-28.05.33-42.08.29-29.77-.1-59.54-.88-89.31-1.3-27.11-.39-54.29-.7-81.38.7-17,.88-34,2.13-50.75,4.89-4.15.69-8.39,1.38-12.48,2.31a282.83,282.83,0,0,0-28,7.81,322.26,322.26,0,0,0-67.93,31.79A348.54,348.54,0,0,0,85.63,304C70.68,317.34,57.56,332.43,44.5,347.6a.76.76,0,0,0,.3,1,2.64,2.64,0,0,0,2,0C48.43,348.24,50.93,347.77,52,346.41Z"/><path class="cls-18" d="M51.49,343.51a409.79,409.79,0,0,1,33.08-35.75,309.92,309.92,0,0,1,50.19-38.42,321.89,321.89,0,0,1,59.62-28.82A275.54,275.54,0,0,1,225.54,231a258,258,0,0,1,34.64-5.29c22.27-2.08,44.67-2.65,67-2.62,25.41,0,50.81.7,76.21,1.3,27.4.64,54.79,1.2,82.2,1.15,25.93-.05,52-.61,77.82-2.6a474.79,474.79,0,0,0,74.34-11.38c37-8.84,73-21.85,108-36.53C769,165.33,791.89,154.89,814.6,144c19.5-9.33,38.61-19.3,57.25-30.28a586.92,586.92,0,0,0,64.56-44.21c10.44-8.2,20.7-16.68,30.52-25.63l12.21-11.35q12.5-12,24.24-24.64c1.46-1.53-2.74-1.56-3-1.58-1.9-.06-3.79-.05-5.69,0a5.53,5.53,0,0,0-3,.57c-11.77,12-23.62,23.83-36.3,34.87Q943.56,52.18,931.18,62a576.68,576.68,0,0,1-64.44,44Q840,121.89,811.89,135.35c-25,11.94-50.21,23.42-75.89,33.79-33.39,13.48-67.39,25.77-102.47,34.14A483,483,0,0,1,556,214.87c-2.14.21-4.3.31-6.46.31q-10,.18-20.07.88-21.14.8-42.28,1c-27.6.22-55.2-.24-82.79-.76-28.38-.54-56.79-1.25-85.18-.78-22.83.37-45.85,1.08-68.52,4.13a295.25,295.25,0,0,0-30,5.43,293.13,293.13,0,0,0-30.65,9.44,332.13,332.13,0,0,0-61.62,30.23,320.74,320.74,0,0,0-51.53,40.08c-13.11,12.4-24.89,26-36.95,39.43-1.48,1.64,3.2,1.13,3.13,1.13,1.87-.2,3.72-.49,5.57-.86A5.34,5.34,0,0,0,51.49,343.51Z"/><path class="cls-19" d="M46.3,339.37A368.58,368.58,0,0,1,83.52,300,307,307,0,0,1,135,262.23a321.94,321.94,0,0,1,61-27.63,238,238,0,0,1,29.93-7.9c9.61-1.81,19.29-3,29-4,24.59-2.38,49.44-2.44,74.11-2.24,28.28.23,56.56,1.15,84.83,1.77,50.23,1.11,100.72,1.94,150.82-2.48a460.48,460.48,0,0,0,80.72-14.32c39.25-10.7,77.25-25.49,114.46-41.86q17.45-7.66,34.69-15.8c13.49-6.33,27-12.76,40.23-19.68A616.46,616.46,0,0,0,889.54,96c16.61-11,32.75-22.7,48.22-35.25,7.79-6.33,17.08-14.23,24.45-21l12.22-11.42q12.5-12,24.23-24.77C1000,2.24,997.16.93,996.2,2c-9.85,10.38-19.75,20.59-30.2,30.36a599.42,599.42,0,0,1-54.21,44.88,603.23,603.23,0,0,1-57.24,37c-19.8,11.37-40.4,21.27-61,31q-32.64,15.45-66.08,29.14c-32.43,13.23-65.66,24.73-99.77,32.76-25.2,5.93-50.85,9.23-76.65,11-26.47,1.84-53,2.24-79.57,2.21-27.26,0-54.52-.68-81.77-1.36-25.16-.62-50.33-1.27-75.51-1.2-22.08.06-44.19.63-66.17,3a256.58,256.58,0,0,0-28.79,4.43,267,267,0,0,0-31.36,9.35A319.23,319.23,0,0,0,81.27,298c-6.49,5.83-12.79,11.88-18.8,18.21C56,323,49.88,330.22,43.79,337.45a1.32,1.32,0,0,0-.09,1.79C44.05,339.61,46,339.8,46.3,339.37Z"/><path class="cls-20" d="M44.81,343.05A338,338,0,0,1,77.5,307.44a189.4,189.4,0,0,1,26.2-21,157.41,157.41,0,0,1,23.47-17c9.06-5.61,18.37-10.81,28-15.49a324.55,324.55,0,0,1,31.61-13.32,258,258,0,0,1,31.12-9.51c19.65-4.44,39.94-6.14,60-7.1,23.62-1.13,47.31-1,70.94-.61,26.55.43,53.09,1.26,79.64,1.72,27.87.49,55.79.78,83.66-.05,18.08-.54,36.18-1.23,54.19-2.94a463.38,463.38,0,0,0,77.26-13.81c34.68-9.38,68.38-22,101.43-36,23.7-10.05,47.06-20.87,70.21-32.13,18.85-9.17,37.29-19.1,55.2-30a599.63,599.63,0,0,0,58.94-40.82Q945,57.05,959.88,43.72c12.7-11.47,24.65-23.64,36.46-36,1-1.1-1.23-1.54-1.69-1.58-1.25-.13-3.9-.44-4.89.58C978,18.92,966.11,31,953.37,42.24q-14.83,13.13-30.45,25.29a582.51,582.51,0,0,1-64.41,43.57c-18.66,10.85-37.79,20.72-57.26,30-24.58,11.75-49.49,22.87-74.76,33.06-34.47,13.9-69.66,26.11-106,34.22a445.63,445.63,0,0,1-79.77,10.27c-14.16.55-28.3,1.26-42.47,1.53s-28,.34-42.08.29c-29.58-.11-59.16-.9-88.74-1.41-26.82-.46-53.71-.88-80.53.24-21.06.88-42.11,2.46-62.87,6.27a229.33,229.33,0,0,0-35.77,9.85c-11,3.94-21.79,8.35-32.36,13.35a326.86,326.86,0,0,0-49.51,29,336.91,336.91,0,0,0-27.55,22c-14.84,13.06-28,27.77-40.7,42.89-1,1.19,1.4,1.43,1.82,1.43C41.24,344.09,43.93,344.16,44.81,343.05Z"/><path class="cls-21" d="M48.18,347.92A367.81,367.81,0,0,1,80.91,312.3a309.38,309.38,0,0,1,50-38.34,320.18,320.18,0,0,1,59.37-28.78,272.92,272.92,0,0,1,31-9.5,257.25,257.25,0,0,1,34.49-5.32c22.2-2.11,44.53-2.71,66.83-2.7,25.63,0,51.26.64,76.88,1.23,27.39.64,54.78,1.21,82.18,1.15,25.94,0,52-.61,77.86-2.61A479.2,479.2,0,0,0,633.92,216c37-8.84,73-21.85,108.12-36.56,23.23-9.74,46.15-20.2,68.87-31.09,19.52-9.34,38.65-19.32,57.31-30.3a588,588,0,0,0,64.64-44.27c10.46-8.21,20.74-16.7,30.57-25.66l12.24-11.37q12.51-12,24.28-24.67c.82-.86-.89-1.26-1.29-1.31a7.74,7.74,0,0,0-2,.21,10.21,10.21,0,0,0-2.49.68C982.08,24.07,970,36.31,957,47.7q-12.08,10.57-24.61,20.58A578.69,578.69,0,0,1,867,113.09c-18,10.71-36.5,20.5-55.38,29.55C786.45,154.74,761,166.36,735,176.83c-33.84,13.67-68.33,26-103.9,34.31a498.86,498.86,0,0,1-78.53,11.41q-3.29.31-6.59.33-10.12.27-20.23.89-21.16.79-42.34.94c-27.54.23-55.07-.21-82.59-.69-27.84-.48-55.7-1.14-83.54-.7-22.33.35-44.83,1-67,3.8-9.75,1.22-19.43,2.75-29,4.89a267.35,267.35,0,0,0-29.86,8.78,327.42,327.42,0,0,0-60.57,28.84,314,314,0,0,0-51,38.65A398,398,0,0,0,43.34,347.5a1,1,0,0,0,.52,1.72,8.08,8.08,0,0,0,2.23-.43A7.83,7.83,0,0,0,48.18,347.92Z"/><path class="cls-22" d="M50.83,339.53a415.26,415.26,0,0,1,33.06-35.72,310.74,310.74,0,0,1,50.24-38.42,320.9,320.9,0,0,1,59.7-28.79,274.37,274.37,0,0,1,31.22-9.46,257.56,257.56,0,0,1,34.73-5.22c22.3-2,44.71-2.55,67.09-2.48,25.41.09,50.82.78,76.22,1.4,27.4.66,54.8,1.23,82.2,1.18,25.91-.05,51.95-.55,77.79-2.62a479.53,479.53,0,0,0,74.32-11.5c37-8.9,72.91-22,107.94-36.66,23.2-9.75,46.09-20.2,68.78-31.08,19.5-9.35,38.6-19.33,57.23-30.31a586.52,586.52,0,0,0,64.5-44.25c10.44-8.2,20.69-16.68,30.49-25.63l12.21-11.36Q991,16.66,1002.76,4c1.2-1.26-1.33-1.78-2-1.94a42.74,42.74,0,0,0-4.35-.68,3.51,3.51,0,0,0-2.35.18C982.41,13.66,970.7,25.62,958.13,36.8q-11.8,10.52-24.08,20.46A573.73,573.73,0,0,1,870,102q-26.64,16.14-54.71,29.74c-25,12.1-50.15,23.77-75.78,34.39C706.09,180,672.09,192.61,637,201.4q-19.53,4.89-39.44,8c-12.69,2-25.49,3.29-38.3,4.35-8.81.73-17.84,1.06-26.61,1.41q-21.15.84-42.31,1c-27.59.23-55.17-.27-82.74-.91-28.32-.66-56.65-1.57-85-1.48-22.79.07-45.75.39-68.43,2.88-10.11,1.11-20.16,2.53-30.12,4.62a267.43,267.43,0,0,0-30.92,8.76,329.68,329.68,0,0,0-62.35,29.25,315.06,315.06,0,0,0-52.33,39.52c-13.26,12.26-25.15,25.76-37.12,39.25-1.23,1.39,1.86,1.64,2.36,1.69a45.76,45.76,0,0,0,4.68.18A3.9,3.9,0,0,0,50.83,339.53Z"/><path class="cls-23" d="M46.11,346a326,326,0,0,1,82.33-73.49,321.7,321.7,0,0,1,59.4-28.78,277.83,277.83,0,0,1,31-9.5,257.1,257.1,0,0,1,34.48-5.32c22.2-2.11,44.53-2.72,66.82-2.71,25.37,0,50.74.63,76.11,1.21,27.63.63,55.27,1.2,82.92,1.15,25.94-.05,52-.58,77.84-2.59a480.61,480.61,0,0,0,74.41-11.38c37-8.83,73-21.85,108.13-36.55,23.24-9.73,46.15-20.19,68.88-31.07,19.52-9.34,38.66-19.32,57.32-30.3a586,586,0,0,0,64.64-44.26c10.46-8.21,20.74-16.7,30.57-25.66l12.24-11.36q12.51-12,24.27-24.68a.91.91,0,0,0-.12-1,1.83,1.83,0,0,0-1.59-.37c-1.33,0-3.42,0-4.41,1.05C979.52,22.62,967.57,34.7,954.75,46q-12,10.59-24.54,20.6A577.91,577.91,0,0,1,865,111.46c-18,10.73-36.47,20.55-55.34,29.62-25.21,12.11-50.67,23.76-76.59,34.26-33.84,13.72-68.34,26.1-103.93,34.48-25.88,6.1-52.11,9.59-78.62,11.52-2.19.2-4.39.32-6.6.34q-10.11.27-20.23.9-21.18.78-42.36.94c-27.28.22-54.55-.21-81.82-.71-28.08-.52-56.17-1.21-84.25-.82-22.32.32-44.79.92-67,3.65-9.77,1.19-19.46,2.69-29.07,4.8a264.1,264.1,0,0,0-29.94,8.7,328.38,328.38,0,0,0-60.76,28.75,314,314,0,0,0-51.23,38.65,392.77,392.77,0,0,0-36.54,39.21c-.78.93-.3,1.65.87,1.73S45.26,347.09,46.11,346Z"/><path class="cls-24" d="M49.9,337.9a354.42,354.42,0,0,1,37-39.32,314.67,314.67,0,0,1,46.35-34.69c9.12-5.6,18.48-10.69,28.08-15.4a201.22,201.22,0,0,1,32.11-12.67,156.94,156.94,0,0,1,30.44-9.69c19.85-4.14,40.11-5.84,60.35-6.66,23.68-1,47.4-.67,71.09-.24,29.08.54,58.15,1.53,87.23,2,40.92.68,82,.76,122.82-2.62a470.12,470.12,0,0,0,67.17-10.39c36.35-8.38,71.63-21.22,106.05-35.45,25.3-10.45,50.24-21.78,74.86-33.72,19.47-9.43,38.59-19.38,57.2-30.41A605.09,605.09,0,0,0,929,69.05c12.57-9.57,24.86-19.82,36.51-30.49l12.19-11.38q12.45-12,24.17-24.7c1.64-1.73-4.11-3.16-5.07-2.14-9.75,10.29-19.54,20.4-29.87,30.1q-14.62,13.69-30.12,26.38a587.43,587.43,0,0,1-58.62,42,629.29,629.29,0,0,1-60.37,33.43c-23,11.24-46.16,22.05-69.68,32.13C714,179,679.2,192.25,643.27,201.75a434.31,434.31,0,0,1-44,9.4,570.66,570.66,0,0,1-64.77,6c-54.86,2.27-109.72.39-164.58-.94-24.47-.58-49-1-73.42-.58-21.29.4-42.65,1.66-63.69,5-17.17,2.72-33.84,7.92-50.07,14.09a324,324,0,0,0-54.56,26.88A319.88,319.88,0,0,0,81,297c-13.42,12.15-25.41,25.45-37.15,39.21C42.32,338,49,339,49.9,337.9Z"/><path class="cls-25" d="M46.42,341.17A46.94,46.94,0,0,1,54,330.61q4.66-5.5,9.62-10.75,7.08-7.42,14.57-14.45a308.34,308.34,0,0,1,50.2-38.09A319.58,319.58,0,0,1,188,238.89a263,263,0,0,1,31.1-9.24,262.37,262.37,0,0,1,34.52-5c22.21-1.93,44.53-2.39,66.81-2.28,25.37.12,50.72.82,76.07,1.45,53.3,1.3,106.87,2.61,160.09-1.54A473.16,473.16,0,0,0,631,210.72c37.05-8.95,73.07-22.05,108.16-36.85,23.24-9.8,46.17-20.31,68.91-31.24,19.51-9.38,38.64-19.36,57.28-30.39A587.82,587.82,0,0,0,930,67.75C940.47,59.5,950.73,51,960.56,42l12.22-11.41q12.5-12,24.24-24.77A1.52,1.52,0,0,0,997.3,4c-.27-.37-1.71-.7-2.06-.33-11.76,12.41-23.6,24.65-36.31,36.09Q947,50.52,934.56,60.7a578.63,578.63,0,0,1-64.85,45.73c-17.87,10.92-36.25,20.8-55.06,30-25.19,12.3-50.62,24.16-76.49,35-33.73,14.06-68.12,26.81-103.6,35.69a472,472,0,0,1-78.47,12.52c-50.55,3.92-101.43,2.93-152.07,1.74-28.08-.66-56.18-1.57-84.28-1.56-22.37,0-44.88.22-67.16,2.42-9.8,1-19.55,2.21-29.23,4a239.12,239.12,0,0,0-30.13,8A325.48,325.48,0,0,0,131.87,262,309,309,0,0,0,80.1,300c-6.44,5.79-12.73,11.78-18.64,18.12l-6.57,7.22a47.55,47.55,0,0,0-10.25,14.11,1.7,1.7,0,0,0,0,1.79C45,341.5,46.15,341.58,46.42,341.17Z"/></g><g class="cls-1"><path class="cls-26" d="M16.05,282.44a510,510,0,0,1,41.2-30.79,363.16,363.16,0,0,1,117.29-50.3,310.6,310.6,0,0,1,35.17-6.17,244.05,244.05,0,0,1,30.7-1.44c22.35.3,44.71,3,66.78,6.36,25,3.83,49.84,8.5,74.73,13,27.64,5,55.33,9.83,83.18,13.5,22.81,3,45.75,5.7,68.75,6.81a579.46,579.46,0,0,0,92-2.75c42.8-4.75,85.06-13.29,126.74-24,47.1-12.09,93.86-26.11,138.66-45.14a681.94,681.94,0,0,0,64-31.22q17.25-9.54,33.93-20.06c14.24-9,28-18.73,41.63-28.64,1.71-1.24-2.48-1.93-2.62-2-1.81-.32-3.62-.56-5.45-.73a5.23,5.23,0,0,0-2.91.17c-11.4,8.08-22.83,16-34.63,23.5q-16.71,10.6-34,20.24a651.74,651.74,0,0,1-64.35,31.3c-44.06,18.62-89.95,32.53-136.27,44.29-43.87,11.15-88.57,20.12-133.68,24.34a606.2,606.2,0,0,1-91.29,1.71c-4.85-.28-9.65-.68-14.48-1.19q-13.65-1.12-27.26-2.74-13.34-1.44-26.61-3.29C429.43,213.38,401.7,208.7,374,204c-25.1-4.3-50.2-8.79-75.47-12-20.38-2.56-40.83-4.48-61.38-4.52a285.1,285.1,0,0,0-31.6,1.64,297.11,297.11,0,0,0-34.36,6.36,369.86,369.86,0,0,0-66.09,22.17,381.53,381.53,0,0,0-54,29.46c-16,10.44-30.8,22.23-45.85,33.9-1.7,1.32,2.74,1.69,2.73,1.69,1.78.14,3.56.2,5.35.18A5,5,0,0,0,16.05,282.44Z"/><path class="cls-27" d="M17.46,278.28a509.33,509.33,0,0,1,41.17-30.77A362.43,362.43,0,0,1,176,197.28a310.85,310.85,0,0,1,35.19-6.14,242.54,242.54,0,0,1,30.73-1.4c22.35.34,44.71,3.06,66.78,6.47,25,3.86,49.83,8.56,74.7,13,27.64,5,55.32,9.86,83.17,13.53,22.81,3,45.75,5.71,68.75,6.8a582.46,582.46,0,0,0,92.06-2.83c42.8-4.78,85-13.34,126.73-24.07,47.1-12.11,93.86-26.15,138.66-45.21a688,688,0,0,0,64-31.25c11.49-6.38,22.81-13,33.91-20.08,14.24-9,28-18.75,41.62-28.66,1.52-1.1-1.48-2.06-2-2.25q-2.32-.81-4.72-1.39a4.23,4.23,0,0,0-2.6-.19c-11.32,8.14-22.65,16.12-34.36,23.67Q972,108,954.82,117.75a650.61,650.61,0,0,1-64,31.67c-43.89,18.93-89.64,33-135.85,45-43.77,11.38-88.35,20.68-133.38,25.28a602.12,602.12,0,0,1-91.27,2.44c-4.85-.24-9.66-.59-14.49-1-18-1.69-36-3.46-53.89-5.92-27.87-3.83-55.61-8.55-83.31-13.46-25.12-4.45-50.22-9.15-75.5-12.65-20.45-2.84-41-5.11-61.64-5.5a280.91,280.91,0,0,0-31.91,1.09,284,284,0,0,0-34.72,6,367.63,367.63,0,0,0-66.78,21.63,377.86,377.86,0,0,0-54.63,29.21c-16,10.35-31,22.06-46,33.77-1.55,1.2,1.88,2,2.28,2.08,1.65.41,3.32.74,5,1A4.52,4.52,0,0,0,17.46,278.28Z"/><path class="cls-28" d="M18.5,281.66a478.67,478.67,0,0,1,41.15-30.82,363.26,363.26,0,0,1,117.28-50.31,312.71,312.71,0,0,1,35.16-6.18,246,246,0,0,1,30.7-1.45c22.34.3,44.71,3,66.77,6.35,25,3.82,49.85,8.49,74.74,12.95,27.64,5,55.33,9.84,83.18,13.5,22.82,3,45.75,5.71,68.75,6.82a579.67,579.67,0,0,0,92-2.74c42.8-4.74,85.06-13.28,126.74-24,47.1-12.09,93.87-26.1,138.67-45.13a686.91,686.91,0,0,0,64-31.22q17.24-9.55,33.92-20.06c14.25-9,28-18.74,41.63-28.64,1.87-1.35-3-2.17-3.21-2.21-2.23-.49-4.47-.89-6.73-1.22a7.7,7.7,0,0,0-3.6-.1c-11.36,8-22.73,15.88-34.48,23.31Q968.6,111,951.38,120.6a650.08,650.08,0,0,1-64,31C843.42,170.14,797.73,184,751.57,195.7c-43.66,11.06-88.14,20-133,24.2a605.9,605.9,0,0,1-90.87,1.78c-4.81-.27-9.58-.67-14.38-1.18q-13.63-1.12-27.22-2.74-13.32-1.42-26.58-3.28c-27.9-3.85-55.67-8.54-83.43-13.3-25.24-4.32-50.49-8.84-75.92-12-20.59-2.55-41.27-4.45-62-4.4a283,283,0,0,0-32,1.83,305.37,305.37,0,0,0-34.68,6.58,372.54,372.54,0,0,0-66.52,22.63,385.59,385.59,0,0,0-54.29,29.89c-15.92,10.5-30.8,22.34-45.93,33.93-1.9,1.46,3.51,1.85,3.43,1.84,2.27.24,4.54.39,6.82.47A7.69,7.69,0,0,0,18.5,281.66Z"/><path class="cls-29" d="M22.59,284.88c10.39-8.59,20.91-17,32-24.65q111.57-75.39,231-60.62,13.81,1.62,27.55,3.75c41.29,6.33,82.2,14.91,123.45,21.52,36.68,5.88,73.7,10.81,110.86,12.2a566.11,566.11,0,0,0,68.3-1.67,769.2,769.2,0,0,0,90.84-13.53c20.16-4.15,40.19-8.95,60.09-14.22,23.35-6.17,46.61-12.86,69.58-20.33a722.34,722.34,0,0,0,92.5-37.14Q956,137,981.91,121.38c19.11-11.49,37.36-24.1,55.38-37.21,1.53-1.11-2-1.69-2.12-1.7a37.68,37.68,0,0,0-4.25-.21,3.28,3.28,0,0,0-2.22.44c-13.68,9.7-27.39,19.18-41.65,28-13.22,8.17-26.77,16-40.55,23.16a710.94,710.94,0,0,1-69,31.51c-22.16,8.69-44.67,16.28-67.47,23.1-31.8,9.52-64,18-96.5,24.81-42.43,8.87-85.4,15.23-128.76,16.76-16.86.59-33.74.25-50.58-.65-7.9-.42-15.74-1.21-23.61-1.95-17.85-1.66-35.63-3.81-53.38-6.34-30.23-4.3-60.29-9.66-90.38-14.87-26.87-4.66-53.77-9.25-80.9-12.06-13.41-1.39-26.81-2.3-40.28-2.41q-9.59-.21-19.17.39l-11.58,1c-4.35.38-8.66,1.19-13,1.82-9.15,1.35-19.52,3.82-28.52,5.93a321.28,321.28,0,0,0-34.19,10.38c-10.61,3.79-20.95,8.07-31.21,12.71a341,341,0,0,0-43,23.45c-9.35,6-18.54,12.22-27.38,18.93-7.79,5.93-15.43,12-23.12,18.1a.73.73,0,0,0,.08,1.05,3,3,0,0,0,2.11.39C18.29,285.91,21.18,286,22.59,284.88Z"/><path class="cls-30" d="M22.17,281.84a481.76,481.76,0,0,1,41.17-30.79A362,362,0,0,1,180.55,201a309.57,309.57,0,0,1,35.12-6.11,243.37,243.37,0,0,1,30.66-1.38c22.31.35,44.64,3.07,66.68,6.47,25,3.86,49.8,8.55,74.67,13,27.63,5,55.31,9.86,83.16,13.53,22.82,3,45.77,5.7,68.77,6.8a581.77,581.77,0,0,0,92.1-2.82c42.83-4.78,85.11-13.35,126.82-24.08,47.12-12.12,93.91-26.17,138.73-45.24a686.91,686.91,0,0,0,64.07-31.29q17.25-9.57,33.94-20.1c14.25-9,28-18.78,41.65-28.7,1.7-1.24-2.33-2-2.59-2.12-1.85-.43-3.7-.78-5.58-1.06a5.52,5.52,0,0,0-3,0c-11.35,8.05-22.72,16-34.46,23.43q-16.63,10.57-33.83,20.19a657.75,657.75,0,0,1-64,31.26c-43.9,18.67-89.57,32.64-135.73,44.49-43.65,11.2-88.1,20.3-133,24.78a604.55,604.55,0,0,1-91,2.3c-4.82-.25-9.59-.61-14.39-1.08-18-1.76-35.91-3.48-53.82-5.94-27.89-3.84-55.65-8.56-83.38-13.43-25.22-4.43-50.44-9.1-75.83-12.48-20.59-2.74-41.26-4.86-62-5a279.05,279.05,0,0,0-32.06,1.49,292.93,292.93,0,0,0-34.74,6.34A367.69,367.69,0,0,0,111,216.46a380.6,380.6,0,0,0-54.32,29.67C40.7,256.58,25.85,268.41,10.72,280c-1.74,1.33,2.79,1.81,2.82,1.81,1.88.22,3.76.35,5.65.41A5.58,5.58,0,0,0,22.17,281.84Z"/><path class="cls-31" d="M16.89,278a485.48,485.48,0,0,1,41.41-30.8,359.69,359.69,0,0,1,117.1-49.52,298.66,298.66,0,0,1,35-5.91A246.73,246.73,0,0,1,241,190.68c22.23.5,44.46,3.34,66.4,6.82,24.9,3.95,49.67,8.69,74.48,13.18,27.61,5,55.29,9.89,83.12,13.54,22.86,3,45.83,5.61,68.88,6.7a576.74,576.74,0,0,0,92.26-3c42.92-4.87,85.28-13.57,127.07-24.4,47.15-12.22,94-26.3,138.87-45.5a686.45,686.45,0,0,0,64.15-31.51q17.26-9.63,34-20.22c14.27-9.1,28-18.88,41.69-28.86a1.47,1.47,0,0,0,.65-1.66c-.19-.42-1.65-1.12-2.07-.81-11.4,8.34-22.82,16.53-34.63,24.28q-16.74,11-34.06,21a659,659,0,0,1-64.56,32.59c-44.06,19.4-90.17,33.61-136.64,46-73.75,19.64-150,33.37-226.61,29.42-51.09-2.63-101.75-11.09-152-20.23-24.89-4.52-49.73-9.35-74.74-13.17-20.05-3.06-40.18-5.66-60.46-6.52a289.38,289.38,0,0,0-31.17.29c-11.46.75-22.85,2.82-34.08,5.11a357.84,357.84,0,0,0-66,20.21,367.58,367.58,0,0,0-54.16,28C45,252.13,29.84,263.7,14.85,275.76a1.35,1.35,0,0,0-.39,1.74A2.79,2.79,0,0,0,16.89,278Z"/><path class="cls-32" d="M15.52,281.55A369.42,369.42,0,0,1,56.3,250.81l9.62-6.07,42.5-22.25a318.46,318.46,0,0,1,30.78-11.88,333.71,333.71,0,0,1,68.69-15.7c18.73-2.11,37.56-1.55,56.31,0,23.35,1.87,46.58,5.75,69.65,9.74,26.25,4.55,52.4,9.61,78.67,14C456,226,499.88,232.37,544,233.75c75.63,2.35,150.77-11.92,223.48-31.64,43.78-11.87,87.11-25.41,128.71-43.59a661.73,661.73,0,0,0,64.73-32.45q13.79-7.93,27.26-16.4c14.3-9,28-18.79,41.67-28.72,1.26-.92-1.06-1.72-1.46-1.82-1.26-.32-3.78-1-5-.14-13.63,9.79-27.31,19.44-41.57,28.3q-13.44,8.34-27.19,16.14a656.19,656.19,0,0,1-70.59,34.4c-18.43,7.72-37.17,14.58-56.13,20.91-13.58,4.53-27.35,8.53-41.1,12.5-16.31,4.7-32.76,9.12-49.25,13.11-42.55,10.29-85.72,18.5-129.38,22.18q-24.13,2-48.38,2.08c-8.31,0-16.65-.18-25-.57-6.28-.29-12.57-.55-18.83-1.15-13.29-1.26-26.58-2.42-39.83-4q-21.78-2.67-43.44-6c-26.72-4.11-53.32-8.9-80-13.55-26.31-4.59-52.74-9.23-79.34-11.76-11-1.05-21.93-1.82-32.94-2.05a241.67,241.67,0,0,0-31.26,1c-23.33,2.54-46.33,7.93-68.68,15a345.24,345.24,0,0,0-48.89,19.86,389.36,389.36,0,0,0-37.12,21C38.65,256.56,23.7,268.07,9,280.07c-1.2,1,1.18,1.63,1.57,1.7C11.86,282,14.43,282.49,15.52,281.55Z"/><path class="cls-33" d="M18.22,286.47c13.35-10.82,26.83-21.3,41.18-30.78a361.67,361.67,0,0,1,116.83-50.1,312.84,312.84,0,0,1,35-6.14A241.82,241.82,0,0,1,241.81,198c22.25.31,44.51,3,66.49,6.34,25.21,3.85,50.27,8.56,75.36,13.08,27.63,5,55.31,9.85,83.15,13.52,22.83,3,45.79,5.67,68.8,6.78a580.16,580.16,0,0,0,92.16-2.82c42.86-4.78,85.18-13.37,126.93-24.11,47.15-12.13,94-26.18,138.83-45.27a683.29,683.29,0,0,0,64.13-31.32q17.28-9.59,34-20.13c14.28-9,28-18.8,41.71-28.73a.83.83,0,0,0,0-1,2.15,2.15,0,0,0-1.71-.53c-1.52-.14-3.7-.32-5,.6-11.5,8.19-23,16.22-34.91,23.81Q974.88,119,957.44,128.72a658.38,658.38,0,0,1-64.83,31.7c-44.27,18.82-90.46,32.79-137,44.7-44.13,11.29-89.1,20.4-134.49,24.71a608.12,608.12,0,0,1-91.83,1.8c-22.9-1.3-45.81-4-68.52-7.15-27.83-3.82-55.52-8.49-83.19-13.27-24.68-4.26-49.34-8.74-74.17-12-20.1-2.66-40.28-4.75-60.57-5a283.37,283.37,0,0,0-31.11,1.22,279.36,279.36,0,0,0-33.93,5.93,362.23,362.23,0,0,0-65.39,21.35,374,374,0,0,0-53.6,28.73Q47.27,258.85,36.24,267c-7.91,5.9-15.55,12.17-23.34,18.23-.74.57-.8,1.42.2,1.77a9.7,9.7,0,0,0,2.58-.05A10,10,0,0,0,18.22,286.47Z"/><path class="cls-34" d="M21.59,277.87A483.2,483.2,0,0,1,62.73,247.1a362,362,0,0,1,117.34-50A311,311,0,0,1,215.26,191,242.33,242.33,0,0,1,246,189.72c22.35.42,44.69,3.21,66.75,6.67,25,3.93,49.8,8.66,74.67,13.17,27.62,5,55.3,9.9,83.15,13.56,22.82,3,45.76,5.68,68.76,6.75a581.79,581.79,0,0,0,92.1-3c42.8-4.85,85.06-13.47,126.75-24.23,47.11-12.16,93.88-26.23,138.68-45.33a687.66,687.66,0,0,0,64-31.33q17.24-9.58,33.91-20.12c14.24-9,28-18.79,41.62-28.72,1.36-1-.86-1.94-1.5-2.22a36.22,36.22,0,0,0-3.91-1.37,3.14,3.14,0,0,0-2.21-.19c-11.28,8.17-22.59,16.2-34.27,23.8q-16.56,10.75-33.69,20.56A655.33,655.33,0,0,1,897,149.69c-43.83,19.12-89.54,33.3-135.72,45.5-43.74,11.55-88.28,21.09-133.3,26a595,595,0,0,1-91.31,3c-22.87-1-45.75-3.66-68.42-6.76-27.88-3.82-55.61-8.56-83.29-13.59-25.11-4.55-50.19-9.41-75.43-13.17-20.46-3-41-5.57-61.69-6.23a280,280,0,0,0-32,.68c-11.7.94-23.4,3.21-34.86,5.65a363.38,363.38,0,0,0-67,21.22,373,373,0,0,0-54.79,29c-16,10.27-31,21.91-46,33.66-1.39,1.09,1.26,1.92,1.81,2.12a42.92,42.92,0,0,0,4.26,1.09A3.45,3.45,0,0,0,21.59,277.87Z"/><path class="cls-35" d="M16.65,284.61c28.07-23.87,59.15-44,92.89-59a357.54,357.54,0,0,1,64.28-21.46,310.18,310.18,0,0,1,35-6.14,241.43,241.43,0,0,1,30.54-1.43c22.24.3,44.51,3,66.49,6.32,24.94,3.81,49.75,8.46,74.59,12.92,27.88,5,55.81,10,83.91,13.64,22.83,3,45.78,5.69,68.79,6.8a581.36,581.36,0,0,0,92.16-2.79c42.86-4.77,85.18-13.34,126.92-24.08,47.15-12.12,94-26.17,138.84-45.25a684.59,684.59,0,0,0,64.14-31.31q17.28-9.59,34-20.12c14.27-9,28-18.8,41.71-28.73a.87.87,0,0,0,0-1.05,2,2,0,0,0-1.61-.61c-1.41-.2-3.58-.51-4.81.37-11.48,8.2-23,16.25-34.85,23.86q-16.83,10.77-34.24,20.55a657.19,657.19,0,0,1-64.78,31.79c-44.26,18.89-90.46,32.9-137,44.85-44.17,11.34-89.16,20.51-134.6,24.86a606.34,606.34,0,0,1-92,1.86c-22.92-1.3-45.85-4-68.58-7.14-27.56-3.79-55-8.4-82.38-13.16-24.9-4.33-49.79-8.89-74.84-12.24-20.06-2.69-40.2-4.82-60.45-5.14a284.9,284.9,0,0,0-31.06,1.13,277,277,0,0,0-34,5.85A363.06,363.06,0,0,0,110.3,221a374.94,374.94,0,0,0-53.72,28.67,479.44,479.44,0,0,0-45.93,34.16.94.94,0,0,0,0,1.05,1.8,1.8,0,0,0,1.54.48C13.6,285.46,15.56,285.53,16.65,284.61Z"/><path class="cls-36" d="M20.61,276.35c13.37-10.8,26.88-21.26,41.27-30.7a355.66,355.66,0,0,1,52.87-28.5l12-5A220.13,220.13,0,0,1,159,201.82a224.49,224.49,0,0,1,34.23-8.62l14.85-2.39c20.75-2.69,41.75-2.12,62.54-.18,23.41,2.19,46.69,6.08,69.83,10.21,26,4.64,52,9.68,78.06,14.09,39.74,6.7,79.86,12.69,120.16,14.56a571.36,571.36,0,0,0,92-3.08c42.83-4.93,85.1-13.64,126.81-24.48,47.1-12.24,93.88-26.36,138.65-45.58a682.06,682.06,0,0,0,64-31.48q17.22-9.62,33.89-20.19c14.23-9.08,28-18.86,41.57-28.81,1.87-1.37-3-3.57-4.1-2.74-11.31,8.28-22.63,16.42-34.34,24.12q-16.59,10.92-33.78,20.86a654.93,654.93,0,0,1-64,32.45c-43.9,19.4-89.8,33.66-136.11,46.05C690,216.21,614.15,230.08,538,226.3l-7.43-.4-43.05-4c-17.35-1.92-34.72-4.5-52-7.3-26.75-4.35-53.38-9.38-80-14.25-24-4.38-48-8.83-72.18-11.66-19.45-2.27-39-3.76-58.59-2.9-21.11.94-42,5.1-62.42,10.42a349.76,349.76,0,0,0-45.66,15.55,368.47,368.47,0,0,0-54.75,28.33q-11.74,7.38-23,15.57c-7.92,5.82-15.55,12-23.39,18C13.71,275.06,19.47,277.27,20.61,276.35Z"/><path class="cls-37" d="M17.37,280.17a45.22,45.22,0,0,1,9.74-9.45q3.9-3.2,8-6.19C42.18,259.12,49.51,254,57,249.11a359.84,359.84,0,0,1,117.08-49.47,299.31,299.31,0,0,1,35-5.89,245,245,0,0,1,30.53-1.12c22.23.51,44.45,3.35,66.39,6.83,24.9,3.95,49.67,8.68,74.47,13.18,27.62,5,55.29,9.88,83.13,13.53,22.86,3,45.83,5.61,68.87,6.71a576.91,576.91,0,0,0,92.27-3c42.91-4.87,85.27-13.57,127.06-24.4,47.16-12.23,94-26.31,138.87-45.51a688.05,688.05,0,0,0,64.16-31.53q17.26-9.63,34-20.23c14.27-9.1,28-18.89,41.69-28.87a1.52,1.52,0,0,0,.52-1.71c-.23-.42-1.55-.89-2-.59-11.42,8.34-22.85,16.53-34.68,24.28q-16.74,11-34.09,21a657.33,657.33,0,0,1-64.6,32.58C851.62,174.25,805.48,188.45,759,200.8c-73.8,19.62-150.1,33.28-226.72,29.28-51.08-2.67-101.73-11.12-152-20.23-24.87-4.5-49.71-9.31-74.7-13.1-20-3-40.14-5.61-60.39-6.44a288.43,288.43,0,0,0-31.12.32c-11.44.76-22.81,2.83-34,5.13A357.88,357.88,0,0,0,114.15,216a366.28,366.28,0,0,0-54.09,28c-7.75,4.85-15.34,9.94-22.7,15.36l-8.2,6.24a43.18,43.18,0,0,0-13,12.62,1.85,1.85,0,0,0-.25,1.77C16.14,280.3,17.05,280.51,17.37,280.17Z"/></g></g></g></svg>