<svg aria-hidden="true" style="position: absolute; width: 0; height: 0; overflow: hidden;" version="1.1" xmlns="http://www.w3.org/2000/svg" xmlns:xlink="http://www.w3.org/1999/xlink">
<defs>
<symbol id="logo" viewBox="0 0 200.57 77.61">
<title>logo</title>
<path id="y" class="cls-1" d="M13.7,18.92l8.43,21.52a1,1,0,0,0,1.87,0l7.85-21.48a1,1,0,0,1,.95-.66H44.19a1,1,0,0,1,.92,1.4L20.9,77a1,1,0,0,1-.92.61H8.67a1,1,0,0,1-.91-1.42l8.6-18.84a1,1,0,0,0,0-.81L.31,19.69a1,1,0,0,1,.92-1.41H12.76A1,1,0,0,1,13.7,18.92Z"/>
<path id="o" class="cls-1" d="M82.17,20.26a18.29,18.29,0,0,1,7.42,7.17,21.49,21.49,0,0,1,2.7,10.94,21.49,21.49,0,0,1-2.7,10.94,18.29,18.29,0,0,1-7.42,7.17A22.68,22.68,0,0,1,71.48,59a22.87,22.87,0,0,1-10.73-2.48,18.18,18.18,0,0,1-7.45-7.17,21.49,21.49,0,0,1-2.7-10.94,21.49,21.49,0,0,1,2.7-10.94,18.18,18.18,0,0,1,7.45-7.17,22.87,22.87,0,0,1,10.73-2.48A22.68,22.68,0,0,1,82.17,20.26ZM65.54,31c-1.61,1.7-2.41,4.17-2.41,7.38s.8,5.66,2.41,7.34a7.87,7.87,0,0,0,5.94,2.52,7.77,7.77,0,0,0,5.9-2.52C79,44,79.76,41.59,79.76,38.37S79,32.69,77.38,31a7.74,7.74,0,0,0-5.9-2.56A7.84,7.84,0,0,0,65.54,31Z"/>
<path id="r" class="cls-1" d="M126.27,18.9V30a1,1,0,0,1-1,1h-2.52c-3.26,0-5.8.69-7.6,2.08s-2.7,3.75-2.7,7.06V57.45a1,1,0,0,1-1,1h-10.3a1,1,0,0,1-1-1V19.29a1,1,0,0,1,1-1h10.3a1,1,0,0,1,1,1v.55a1,1,0,0,0,1.5.86c2.8-1.53,8.34-2.56,11.25-2.8A1,1,0,0,1,126.27,18.9Z"/>
<path id="i" class="cls-1" d="M139.52,2.33a8.66,8.66,0,0,1,10.65,0,6,6,0,0,1,2,4.18,6.3,6.3,0,0,1-1.93,5,8.61,8.61,0,0,1-10.79,0,6.33,6.33,0,0,1-1.93-5A5.93,5.93,0,0,1,139.52,2.33Zm11.44,17V57.46a1,1,0,0,1-1,1H139.65a1,1,0,0,1-1-1V19.28a1,1,0,0,1,1-1H150A1,1,0,0,1,151,19.28Z"/>
<path id="_3" data-name="3" class="cls-1" d="M191.86,7.16a13.09,13.09,0,0,1,7.78,12.27,12,12,0,0,1-2.56,8,11.11,11.11,0,0,1-6.37,3.81v.36q9.85,3.18,9.86,12.31a15.15,15.15,0,0,1-2,7.82,13.69,13.69,0,0,1-5.87,5.32A20.55,20.55,0,0,1,183.44,59q-8.79,0-13.94-4.32-4.83-4.05-5.51-12.1a1,1,0,0,1,1-1.07h10a1,1,0,0,1,1,.86,7.84,7.84,0,0,0,1.81,4.46,6.37,6.37,0,0,0,5,2,5.4,5.4,0,0,0,5.76-5.69q0-6.27-9.07-6.26h-1.31a1,1,0,0,1-1-1v-8a1,1,0,0,1,1-1h1.24q8.13.15,8.13-5.83a5.44,5.44,0,0,0-1.4-4,5.74,5.74,0,0,0-7.89.36,7.54,7.54,0,0,0-1.64,3.9,1,1,0,0,1-1,.82H165.64a1,1,0,0,1-1-1.07q.6-7.29,5-11.32,4.68-4.32,13.11-4.32A20.84,20.84,0,0,1,191.86,7.16Z"/>
<path id="m" class="cls-1" d="M2,2.11A7.57,7.57,0,0,1,7.34.27a7.58,7.58,0,0,1,5.33,1.84,6,6,0,0,1,2,4.64,5.9,5.9,0,0,1-2,4.57,7.58,7.58,0,0,1-5.33,1.84A7.57,7.57,0,0,1,2,11.32,5.9,5.9,0,0,1,0,6.75,6,6,0,0,1,2,2.11Z"/>
<path id="g" class="cls-1" d="M32.58,1.84A7.59,7.59,0,0,1,37.91,0a7.58,7.58,0,0,1,5.33,1.84,6,6,0,0,1,2,4.64,5.94,5.94,0,0,1-2,4.57,7.58,7.58,0,0,1-5.33,1.84,7.59,7.59,0,0,1-5.33-1.84,5.93,5.93,0,0,1-2-4.57A6,6,0,0,1,32.58,1.84Z"/><g id="n"><line id="n2" class="cls-1" x1="15.85" y1="7.42" x2="29.35" y2="7.42"/><rect id="n1" class="cls-1" x="15.85" y="6.92" width="13.5" height="1"/></g>
</symbol>
</defs>
</svg>
