<svg aria-hidden="true" style="position: absolute; width: 0; height: 0; overflow: hidden;" version="1.1" xmlns="http://www.w3.org/2000/svg" xmlns:xlink="http://www.w3.org/1999/xlink">
<defs>
<symbol id="logo" viewBox="0 0 200.28 43.2">
<title>logo</title>
<path d="M67.8,3.9l-11,46.87a2,2,0,0,1-2,1.57l-9.35.1a2,2,0,0,1-2-1.51L36.1,23.3a2,2,0,0,0-4,0L25.23,51.12a2,2,0,0,1-1.95,1.55L14,52.76a2,2,0,0,1-2-1.53L.06,4.6A2.05,2.05,0,0,1,2,2.05L8.76,2a2,2,0,0,1,2,1.63l6,28.85a2,2,0,0,0,4,.07L27.91,3.32a2,2,0,0,1,2-1.55l8-.09a2,2,0,0,1,2,1.51l7.82,29.1a2,2,0,0,0,4-.16l5.42-29a2,2,0,0,1,2-1.66l6.74-.07A2,2,0,0,1,67.8,3.9Z"/></g><g class="cls-1"><path d="M106.76,34.52l-25.25.26a2,2,0,0,0-2,2.4,7.49,7.49,0,0,0,2.7,4.73,9.26,9.26,0,0,0,6.65,2.45,9.58,9.58,0,0,0,5.85-1.79,7.58,7.58,0,0,0,2.54-3.36,2.07,2.07,0,0,1,1.89-1.36l6.6-.07a2,2,0,0,1,1.94,2.66,16.89,16.89,0,0,1-2.61,4.83,17.74,17.74,0,0,1-6.61,5.26,22.83,22.83,0,0,1-19.41-.42,17.46,17.46,0,0,1-7.13-7c-1.74-3.1-2.56-4.7-2.63-10.84s.78-7.86,2.41-10.93a17.24,17.24,0,0,1,7-7.17A21.55,21.55,0,0,1,89.06,11.6a21,21,0,0,1,10.35,2.34,17.25,17.25,0,0,1,6.91,6.66,19.42,19.42,0,0,1,2.51,9.73,14.42,14.42,0,0,1-.08,1.69C108.65,33,107.78,34.51,106.76,34.52ZM96,22a9.74,9.74,0,0,0-6.83-2.45,10,10,0,0,0-6.89,2.59,7.15,7.15,0,0,0-2.71,4.23,2,2,0,0,0,2,2.43l15-.16a2,2,0,0,0,2-2.29A6.18,6.18,0,0,0,96,22Z"/></g><g class="cls-1"><path d="M149.15,44.64A14,14,0,0,1,143.44,50,20.08,20.08,0,0,1,134.17,52a23.92,23.92,0,0,1-9.66-1.74,16.23,16.23,0,0,1-6.86-5.22,14.71,14.71,0,0,1-2.59-5.51A2,2,0,0,1,117,37l6.85-.07a2,2,0,0,1,1.89,1.47A8,8,0,0,0,128,42.05a7.77,7.77,0,0,0,5.67,2,6.57,6.57,0,0,0,4.84-1.74,5.88,5.88,0,0,0,1.65-4.37A5.72,5.72,0,0,0,138.74,34a10,10,0,0,0-3.48-2.45q-2.1-.91-5.78-2.1a56.84,56.84,0,0,1-7.81-3A14.22,14.22,0,0,1,116.48,22a12.83,12.83,0,0,1-2.21-7.68,12.53,12.53,0,0,1,4.61-10.38Q123.56.09,131.33,0q8.07-.08,12.89,3.76a14.24,14.24,0,0,1,5.08,7.78,2,2,0,0,1-2,2.55l-6.93.07a2.08,2.08,0,0,1-2-1.44,7.27,7.27,0,0,0-2-3A7.14,7.14,0,0,0,131.34,8a6.75,6.75,0,0,0-4.52,1.53,5.32,5.32,0,0,0-1.68,4.3,5.32,5.32,0,0,0,1.37,3.69,10.07,10.07,0,0,0,3.41,2.38,54.18,54.18,0,0,0,5.6,2,74.34,74.34,0,0,1,8,3.16,14,14,0,0,1,5.27,4.48,13.37,13.37,0,0,1,2.24,7.9A13.88,13.88,0,0,1,149.15,44.64Z"/></g><g class="cls-1"><path d="M191.19,2.1l.05,4.07a2,2,0,0,1-2,2l-10,.1a2,2,0,0,0-2,2l.4,38.77a2,2,0,0,1-2,2l-6.16.06a2,2,0,0,1-2-2l-.4-38.77a2,2,0,0,0-2-2l-10,.1a2,2,0,0,1-2-2l0-4.06a2,2,0,0,1,2-2L189.18.13A2,2,0,0,1,191.19,2.1Z"/>
</g></g>
</symbol>
</defs>
</svg>
