<svg aria-hidden="true" style="position: absolute; width: 0; height: 0; overflow: hidden;" version="1.1" xmlns="http://www.w3.org/2000/svg" xmlns:xlink="http://www.w3.org/1999/xlink">
<defs>
<symbol id="logo" viewBox="0 0 200.28 43.2">
<title>logo</title>
<path d="M56.22,0h9.84L50.34,43.2H43.2L33,15.42,29.16,26,22.86,43.2H15.72L0,0H9.9l9.42,25.74,1.5-4L28.74,0h8.58L46.8,25.74l1.5-4Z"/><path d="M93.48,8.4A8.33,8.33,0,0,1,99.63,11a8.41,8.41,0,0,1,2.55,6.12V30.42H76.08V34h26.1V43.2H75.6a8.81,8.81,0,0,1-8.7-8.7V17.1A8.36,8.36,0,0,1,69.48,11,8.36,8.36,0,0,1,75.6,8.4Zm-17.4,14H93v-4.8H76.08Z"/><path d="M151.62,8.88v4H142.2V9.36H117.72v7.56h25a8.91,8.91,0,0,1,8.88,8.88v8.52a8.91,8.91,0,0,1-8.88,8.88H117.3a8.86,8.86,0,0,1-8.88-8.88v-4h9.3v3.54H142.2V26.28H117.3a8.86,8.86,0,0,1-8.88-8.88V8.88A8.52,8.52,0,0,1,111,2.58,8.6,8.6,0,0,1,117.3,0h25.44A8.55,8.55,0,0,1,149,2.61,8.55,8.55,0,0,1,151.62,8.88Z"/><path d="M157.08,0h43.2V9.36H183.36V43.2H174V9.36H157.08Z"/>
</g></g>
</symbol>
</defs>
</svg>
